<svg xmlns="http://www.w3.org/2000/svg" viewBox="0 0 64 64">
  <defs>
    <linearGradient id="bg" x1="0" y1="0" x2="0" y2="1"><stop offset="0" stop-color="#8ec5ff"/><stop offset="1" stop-color="#3d86e6"/></linearGradient>
    <linearGradient id="shirt" x1="0" y1="0" x2="0" y2="1"><stop offset="0" stop-color="#ffffff"/><stop offset="1" stop-color="#d9e4f2"/></linearGradient>
    <linearGradient id="skin" x1="0" y1="0" x2="0" y2="1"><stop offset="0" stop-color="#ffd9b8"/><stop offset="1" stop-color="#f0b98e"/></linearGradient>
    <clipPath id="c"><rect width="64" height="64"/></clipPath>
  </defs>
  <rect width="64" height="64" fill="url(#bg)"/>
  <g clip-path="url(#c)">
    <path fill="url(#shirt)" stroke="#9fb3cc" d="M12 66 c0-12 8-18 20-18 s20 6 20 18 z"/>
    <path fill="#2f6fd6" d="M28 48 l4 4 l4-4 l-4 12 z"/>
    <rect x="27" y="38" width="10" height="10" rx="3" fill="#f0b98e"/>
    <ellipse cx="32" cy="27" rx="13" ry="15" fill="url(#skin)"/>
    <path fill="#3b2a1e" d="M19 24 c0-10 6-15 13-15 s13 5 13 15 c-2-4-5-6-8-6 c-2 2-6 3-9 2 c-3 1-6 3-9 4 z"/>
    <path fill="#3b2a1e" d="M18 27 c0-3 1-5 2-6 v10 c-1-1-2-2-2-4 z M46 27 c0-3-1-5-2-6 v10 c1-1 2-2 2-4 z"/>
    <circle cx="27" cy="28" r="1.5" fill="#2b2b2b"/>
    <circle cx="37" cy="28" r="1.5" fill="#2b2b2b"/>
    <path fill="none" stroke="#c98b6a" stroke-width="1.2" stroke-linecap="round" d="M27 36 c2 2 8 2 10 0"/>
    <path fill="none" stroke="#2b2b2b" stroke-width="1.2" stroke-linecap="round" d="M24 24 c2-1 4-1 6 0 M34 24 c2-1 4-1 6 0"/>
  </g>
</svg>
