<svg xmlns="http://www.w3.org/2000/svg" viewBox="0 0 64 64">
  <defs>
    <linearGradient id="e" x1="0" y1="0" x2="0" y2="1"><stop offset="0" stop-color="#ffffff"/><stop offset="1" stop-color="#dcdcdc"/></linearGradient>
    <linearGradient id="fl" x1="0" y1="0" x2="0" y2="1"><stop offset="0" stop-color="#f4f4f4"/><stop offset="1" stop-color="#c9c9c9"/></linearGradient>
    <linearGradient id="a" x1="0" y1="0" x2="1" y2="1"><stop offset="0" stop-color="#7cc4ff"/><stop offset="1" stop-color="#0d55d6"/></linearGradient>
    <filter id="sh" x="-20%" y="-20%" width="140%" height="150%"><feDropShadow dx="1" dy="2" stdDeviation="1.5" flood-color="#000" flood-opacity="0.4"/></filter>
  </defs>
  <g filter="url(#sh)">
    <rect x="8" y="20" width="44" height="30" rx="2" fill="url(#e)" stroke="#9a9a9a"/>
  </g>
  <path fill="url(#fl)" stroke="#9a9a9a" d="M8 22 l22 16 l22-16 v-1 a2 2 0 0 0 -2-2 h-40 a2 2 0 0 0 -2 2 z"/>
  <path fill="none" stroke="#b0b0b0" d="M9 49 l17-14 M51 49 l-17-14"/>
  <g filter="url(#sh)">
    <path fill="url(#a)" stroke="#0a3c9c" stroke-width="1" stroke-linejoin="round" d="M30 34 c-8 0-14 6-14 14 c3-5 8-8 14-8 v7 l13-11 l-13-11 z"/>
  </g>
  <path fill="#ffffff" opacity="0.45" d="M30 27 v6 c-6 0-11 4-13 9 c3-3 8-5 13-5 z"/>
</svg>
